<?xml version="1.0" encoding="UTF-8"?>
<svg width="385px" height="30px" viewBox="0 0 385 30" version="1.1" xmlns="http://www.w3.org/2000/svg" xmlns:xlink="http://www.w3.org/1999/xlink">
    <title>logo-affiliates</title>
    <g id="logo-affiliates" stroke="none" stroke-width="1" fill="none" fill-rule="evenodd">
        <g id="Group" fill-rule="nonzero">
            <path d="M226.624714,18.9299571 C233.453571,16.9666714 235.314857,14.7938143 235.314857,8.79295714 C235.314857,4.34567143 233.348571,-4.28571428e-05 224.97,-4.28571428e-05 C217.106571,-4.28571428e-05 214.935,3.51638571 214.625143,8.79295714 C214.625143,9.41481429 215.039143,9.82752857 215.660571,9.82752857 L219.487714,9.82752857 C220.211143,9.82752857 220.521857,9.51852857 220.626,8.79295714 C220.936714,5.89624286 222.693429,5.17195714 224.97,5.17195714 C227.451429,5.17195714 229.417714,6.00081429 229.417714,8.79295714 C229.417714,12.6218143 227.971286,12.9308143 221.866286,14.7938143 C215.451857,16.6546714 213.591429,19.5505286 213.591429,24.3106714 L213.591429,28.4481 C213.591429,29.0691 213.901714,29.4818143 214.625143,29.4818143 L233.245286,29.4818143 C233.865857,29.4818143 234.279,29.1715286 234.279,28.4481 L234.279,25.3448143 C234.279,24.6209571 233.865857,24.3106714 233.245286,24.3106714 L219.487714,24.3106714 C219.487714,21.5172429 220.936714,20.6883857 226.624714,18.9299571" id="Path" fill="#3F3F3F"></path>
            <path d="M206.332457,24.3105429 L206.332457,1.24097143 C206.332457,0.517542857 205.815171,0.205971429 205.090886,0.414257143 L195.9876,3.82825714 C195.469886,4.03397143 195.160457,4.44797143 195.160457,4.96568571 L195.160457,8.58497143 C195.160457,9.3114 195.677314,9.61954286 196.400743,9.41511429 L200.5386,7.83582857 L200.5386,24.3105429 L195.160457,24.3105429 C194.436171,24.3105429 194.125029,24.7249714 194.125029,25.3446857 L194.125029,28.4479714 C194.125029,29.0694 194.436171,29.4816857 195.160457,29.4816857 L209.643171,29.4816857 C210.263314,29.4816857 210.676886,29.1718286 210.676886,28.4479714 L210.676886,25.3446857 C210.676886,24.6212571 210.263314,24.3105429 209.643171,24.3105429 L206.332457,24.3105429 Z" id="Path" fill="#3F3F3F"></path>
            <path d="M183.451586,18.9299571 C190.280443,16.9666714 192.142586,14.7938143 192.142586,8.79295714 C192.142586,4.34567143 190.175871,-4.28571428e-05 181.7973,-4.28571428e-05 C173.936443,-4.28571428e-05 171.7623,3.51638571 171.451586,8.79295714 C171.451586,9.41481429 171.865586,9.82752857 172.4883,9.82752857 L176.315443,9.82752857 C177.038443,9.82752857 177.349586,9.51852857 177.452014,8.79295714 C177.764014,5.89624286 179.521586,5.17195714 181.7973,5.17195714 C184.280871,5.17195714 186.2463,6.00081429 186.2463,8.79295714 C186.2463,12.6218143 184.798157,12.9308143 178.693586,14.7938143 C172.280871,16.6546714 170.417871,19.5505286 170.417871,24.3106714 L170.417871,28.4481 C170.417871,29.0691 170.729014,29.4818143 171.451586,29.4818143 L190.072586,29.4818143 C190.694443,29.4818143 191.106729,29.1715286 191.106729,28.4481 L191.106729,25.3448143 C191.106729,24.6209571 190.694443,24.3106714 190.072586,24.3106714 L176.315443,24.3106714 C176.315443,21.5172429 177.764014,20.6883857 183.451586,18.9299571" id="Path" fill="#3F3F3F"></path>
            <path d="M124.6398,1.55168571 L124.6398,13.1385429 L125.007514,18.9345429 L114.916371,1.24011429 C114.606514,0.724542857 114.2958,0.516257143 113.674371,0.516257143 L109.744371,0.516257143 C109.019657,0.516257143 108.709371,0.930685714 108.709371,1.55168571 L108.709371,28.4479714 C108.709371,29.0694 109.019657,29.4816857 109.744371,29.4816857 L113.4678,29.4816857 C114.0888,29.4816857 114.501086,29.0694 114.501086,28.4479714 L114.501086,16.8611143 L114.134657,11.0642571 L124.225371,28.7586857 C124.536943,29.2751143 124.847229,29.4816857 125.466943,29.4816857 L129.398229,29.4816857 C130.0188,29.4816857 130.4328,29.1718286 130.4328,28.4479714 L130.4328,1.55168571 C130.4328,0.828257143 130.0188,0.516257143 129.398229,0.516257143 L125.6748,0.516257143 C124.950514,0.516257143 124.6398,0.828257143 124.6398,1.55168571" id="Path" fill="#3F3F3F"></path>
            <path d="M103.1229,28.4481 L103.1229,1.55181429 C103.1229,0.827957143 102.709329,0.516385714 102.088329,0.516385714 L98.3640429,0.516385714 C97.6401857,0.516385714 97.3294714,0.930385714 97.3294714,1.55181429 L97.3294714,28.4481 C97.3294714,29.0691 97.6401857,29.4818143 98.3640429,29.4818143 L102.088329,29.4818143 C102.709329,29.4818143 103.1229,29.0691 103.1229,28.4481" id="Path" fill="#3F3F3F"></path>
            <path d="M57.4001143,7.27697143 L61.4338286,16.2401143 C61.6412571,16.8611143 62.0531143,17.0694 62.5716857,17.0694 L66.3996857,17.0694 C67.2268286,17.0694 67.5358286,16.5521143 67.2268286,15.8278286 L60.7091143,1.34382857 C60.5025429,0.724542857 60.0881143,0.516685714 59.5716857,0.516685714 L55.2276857,0.516685714 C54.7095429,0.516685714 54.2964,0.724542857 54.0885429,1.34382857 L47.5716857,15.8278286 C47.2614,16.5521143 47.5716857,17.0694 48.3988286,17.0694 L52.2264,17.0694 C52.7441143,17.0694 53.1576857,16.8611143 53.3646857,16.2401143 L57.4001143,7.27697143 Z" id="Path" fill="#00A7E1"></path>
            <path d="M34.2258857,13.3447286 L30.1921714,13.3447286 L30.1921714,5.6883 L34.2258857,5.6883 C37.7436,5.6883 39.1930286,6.72458571 39.1930286,9.51758571 C39.1930286,12.3088714 37.7436,13.3447286 34.2258857,13.3447286 L34.2258857,13.3447286 Z M40.1564571,17.6445857 C44.3063143,16.1120143 45.0884571,12.7845857 45.0884571,9.51758571 C45.0884571,5.06901429 43.6411714,0.5163 34.2258857,0.5163 L25.4350286,0.5163 C24.7094571,0.5163 24.3987429,0.930728571 24.3987429,1.55172857 L24.3987429,28.4480143 C24.3987429,29.0690143 24.7094571,29.4817286 25.4350286,29.4817286 L29.1576,29.4817286 C29.7786,29.4817286 30.1921714,29.0690143 30.1921714,28.4480143 L30.1921714,18.5158714 L34.5190286,18.5154429 L38.7781714,28.6554429 C38.9851714,29.2751571 39.3987429,29.4817286 39.9168857,29.4817286 L43.7431714,29.4817286 C44.5724571,29.4817286 44.8810286,28.9644429 44.5724571,28.2405857 L40.1564571,17.6445857 Z" id="Shape" fill="#3F3F3F"></path>
            <path d="M20.0545286,0.516471429 L1.43438571,0.516471429 C0.709242857,0.516471429 0.399385714,0.828042857 0.399385714,1.5519 L0.399385714,4.65432857 C0.399385714,5.27447143 0.813385714,5.68847143 1.43438571,5.68847143 L7.84795714,5.68847143 L7.84795714,28.4481857 C7.84795714,29.0691857 8.15824286,29.4819 8.8821,29.4819 L12.6068143,29.4819 C13.2273857,29.4819 13.6409571,29.0691857 13.6409571,28.4481857 L13.6409571,5.68847143 L20.0545286,5.68847143 C20.6746714,5.68847143 21.0882429,5.27447143 21.0882429,4.65432857 L21.0882429,1.5519 C21.0882429,0.828042857 20.6746714,0.516471429 20.0545286,0.516471429" id="Path" fill="#3F3F3F"></path>
            <path d="M156.192086,13.9645714 L147.398657,13.9645714 C146.676514,13.9645714 146.364943,14.2752857 146.364943,15 L146.364943,18.1045714 C146.364943,18.7234286 146.676514,19.1382857 147.398657,19.1382857 L151.3308,19.1382857 L151.3308,20.1715714 C151.3308,23.9982857 149.880086,24.828 146.364943,24.828 C142.847657,24.828 141.398657,23.9982857 141.398657,20.1715714 L141.398657,9.82757143 C141.398657,5.99957143 142.847657,5.172 146.364943,5.172 C149.570657,5.172 151.019229,5.89628571 151.3308,8.79214286 C151.3308,9.51771429 151.640229,9.82757143 152.364086,9.82757143 L156.192086,9.82757143 C156.813086,9.82757143 157.2258,9.414 157.2258,8.79214286 C157.019229,3.51642857 155.157514,0 146.364943,0 C136.950943,0 135.5028,4.03285714 135.5028,9.51771429 L135.5028,20.481 C135.5028,25.9658571 136.950943,30 146.364943,30 C155.777657,30 157.2258,25.9658571 157.2258,20.481 L157.2258,15 C157.2258,14.2752857 156.813086,13.9645714 156.192086,13.9645714" id="Path" fill="#3F3F3F"></path>
            <path d="M86.2617,19.6540286 C86.2617,23.4824571 84.8131286,24.3104571 81.2954143,24.3104571 L77.2608429,24.3104571 L77.2608429,5.6886 L81.2954143,5.6886 C84.8131286,5.6886 86.2617,6.51745714 86.2617,10.3446 L86.2617,19.6540286 Z M81.2954143,0.5166 L72.5024143,0.5166 C71.7785571,0.5166 71.4682714,0.9306 71.4682714,1.5516 L71.4682714,28.4483143 C71.4682714,29.0693143 71.7785571,29.4820286 72.5024143,29.4820286 L81.2954143,29.4820286 C90.7089857,29.4820286 92.1567,25.4478857 92.1567,19.9660286 L92.1567,10.0338857 C92.1567,4.55074286 90.7089857,0.5166 81.2954143,0.5166 L81.2954143,0.5166 Z" id="Shape" fill="#3F3F3F"></path>
        </g>
        <g id="Group-3" transform="translate(246.000000, 0.000000)" fill-rule="nonzero">
            <path d="M24.305054,0 C15.651478,0 7.979453,5.56534944 5.293127,13.7914078 L-1.42108547e-14,30 L114.694946,30 C123.348522,30 131.020547,24.4346506 133.706873,16.2085922 L139,0 L24.305054,0 Z" id="Path" fill="#E10000"></path>
            <path d="M20.927238,7.184 L22.951238,7.184 C23.303906,7.184 23.510904,7.37566475 23.572238,7.759 L26.102238,22.249 C26.178905,22.6323352 26.017906,22.824 25.619238,22.824 L23.595238,22.824 C23.257903,22.824 23.050905,22.6323352 22.974238,22.249 L22.514238,19.443 L18.236238,19.443 L17.086238,22.249 C16.948237,22.6323352 16.702906,22.824 16.350238,22.824 L14.441238,22.824 C14.027236,22.824 13.90457,22.6323352 14.073238,22.249 L20.145238,7.759 C20.298572,7.37566475 20.559236,7.184 20.927238,7.184 Z M22.146238,16.982 L21.709238,14.429 C21.647904,14.0763316 21.601904,13.5473369 21.571238,12.842 C21.540571,12.1366631 21.525238,11.5233359 21.525238,11.002 L21.525238,10.22 C20.957901,12.4586779 20.559239,13.8539972 20.329238,14.406 L19.225238,16.982 L22.146238,16.982 Z M30.472238,7.184 L38.890238,7.184 C39.288906,7.184 39.465238,7.36799816 39.419238,7.736 L39.235238,9.185 C39.189237,9.56833525 38.974573,9.76 38.591238,9.76 L32.726238,9.76 L32.266238,13.486 L37.740238,13.486 C38.123573,13.486 38.292238,13.6699982 38.246238,14.038 L38.062238,15.51 C38.016237,15.8933352 37.801573,16.085 37.418238,16.085 L31.944238,16.085 L31.185238,22.226 C31.139237,22.6246687 30.932239,22.824 30.564238,22.824 L28.563238,22.824 C28.179902,22.824 28.011237,22.6246687 28.057238,22.226 L29.851238,7.782 C29.897238,7.38333134 30.104236,7.184 30.472238,7.184 L30.472238,7.184 Z M42.386238,7.184 L50.804238,7.184 C51.202906,7.184 51.379238,7.36799816 51.333238,7.736 L51.149238,9.185 C51.103237,9.56833525 50.888573,9.76 50.505238,9.76 L44.640238,9.76 L44.180238,13.486 L49.654238,13.486 C50.037573,13.486 50.206238,13.6699982 50.160238,14.038 L49.976238,15.51 C49.930237,15.8933352 49.715573,16.085 49.332238,16.085 L43.858238,16.085 L43.099238,22.226 C43.053237,22.6246687 42.846239,22.824 42.478238,22.824 L40.477238,22.824 C40.093902,22.824 39.925237,22.6246687 39.971238,22.226 L41.765238,7.782 C41.811238,7.38333134 42.018236,7.184 42.386238,7.184 L42.386238,7.184 Z M56.784238,7.782 L55.013238,22.226 C54.967237,22.6246687 54.760239,22.824 54.392238,22.824 L52.391238,22.824 C52.007902,22.824 51.839237,22.6246687 51.885238,22.226 L53.679238,7.782 C53.725238,7.38333134 53.932236,7.184 54.300238,7.184 L56.301238,7.184 C56.669239,7.184 56.830238,7.38333134 56.784238,7.782 Z M63.086238,7.782 L61.545238,20.248 L66.674238,20.248 C67.08824,20.248 67.264571,20.4319982 67.203238,20.8 L66.996238,22.249 C66.934904,22.6323352 66.727906,22.824 66.375238,22.824 L58.624238,22.824 C58.286903,22.824 58.141237,22.6246687 58.187238,22.226 L59.981238,7.782 C60.027238,7.38333134 60.234236,7.184 60.602238,7.184 L62.603238,7.184 C62.971239,7.184 63.132238,7.38333134 63.086238,7.782 Z M74.057238,7.782 L72.286238,22.226 C72.240237,22.6246687 72.033239,22.824 71.665238,22.824 L69.664238,22.824 C69.280902,22.824 69.112237,22.6246687 69.158238,22.226 L70.952238,7.782 C70.998238,7.38333134 71.205236,7.184 71.573238,7.184 L73.574238,7.184 C73.942239,7.184 74.103238,7.38333134 74.057238,7.782 Z M81.049238,7.184 L83.073238,7.184 C83.425906,7.184 83.632904,7.37566475 83.694238,7.759 L86.224238,22.249 C86.300905,22.6323352 86.139906,22.824 85.741238,22.824 L83.717238,22.824 C83.379903,22.824 83.172905,22.6323352 83.096238,22.249 L82.636238,19.443 L78.358238,19.443 L77.208238,22.249 C77.070237,22.6323352 76.824906,22.824 76.472238,22.824 L74.563238,22.824 C74.149236,22.824 74.02657,22.6323352 74.195238,22.249 L80.267238,7.759 C80.420572,7.37566475 80.681236,7.184 81.049238,7.184 Z M82.268238,16.982 L81.831238,14.429 C81.769904,14.0763316 81.723904,13.5473369 81.693238,12.842 C81.662571,12.1366631 81.647238,11.5233359 81.647238,11.002 L81.647238,10.22 C81.079901,12.4586779 80.681239,13.8539972 80.451238,14.406 L79.347238,16.982 L82.268238,16.982 Z M87.972238,7.184 L97.609238,7.184 C98.007906,7.184 98.184238,7.36799816 98.138238,7.736 L97.954238,9.185 C97.908237,9.56833525 97.701239,9.76 97.333238,9.76 L94.044238,9.76 L92.503238,22.226 C92.457237,22.6246687 92.257906,22.824 91.905238,22.824 L89.904238,22.824 C89.520902,22.824 89.352237,22.6246687 89.398238,22.226 L90.939238,9.76 L87.673238,9.76 C87.274569,9.76 87.098237,9.56833525 87.144238,9.185 L87.328238,7.736 C87.374238,7.36799816 87.588902,7.184 87.972238,7.184 L87.972238,7.184 Z M106.855238,22.824 L98.736238,22.824 C98.352902,22.824 98.184237,22.6246687 98.230238,22.226 L100.024238,7.782 C100.070238,7.38333134 100.277236,7.184 100.645238,7.184 L108.511238,7.184 C108.909906,7.184 109.086238,7.36799816 109.040238,7.736 L108.856238,9.185 C108.810237,9.56833525 108.595573,9.76 108.212238,9.76 L102.899238,9.76 L102.439238,13.486 L107.384238,13.486 C107.752239,13.486 107.913238,13.6699982 107.867238,14.038 L107.706238,15.418 C107.660237,15.7860018 107.445573,15.97 107.062238,15.97 L102.140238,15.97 L101.588238,20.248 L107.154238,20.248 C107.56824,20.248 107.744571,20.4319982 107.683238,20.8 L107.476238,22.249 C107.414904,22.6323352 107.207906,22.824 106.855238,22.824 L106.855238,22.824 Z M118.608238,11.692 L118.677238,11.163 C118.692571,11.0403327 118.700238,10.9636668 118.700238,10.933 C118.700238,9.96699517 118.002578,9.484 116.607238,9.484 C115.104563,9.484 114.299571,10.0436611 114.192238,11.163 L114.169238,11.393 C114.153904,11.5310007 114.146238,11.6536661 114.146238,11.761 C114.146238,12.2056689 114.406902,12.5276657 114.928238,12.727 L118.723238,14.153 C120.302579,14.751003 121.092238,15.7476597 121.092238,17.143 C121.092238,17.2350005 121.076904,17.4189986 121.046238,17.695 L120.885238,19.259 C120.76257,20.3630055 120.245075,21.2638298 119.332738,21.9615 C118.4204,22.6591702 116.990581,23.008 115.043238,23.008 C113.279895,23.008 111.976575,22.6898365 111.133238,22.0535 C110.2899,21.4171635 109.868238,20.6160048 109.868238,19.65 C109.868238,19.4813325 109.883571,19.2973343 109.914238,19.098 L110.075238,17.81 C110.121238,17.4113313 110.328236,17.212 110.696238,17.212 L112.628238,17.212 C112.996239,17.212 113.157238,17.4113313 113.111238,17.81 L112.996238,18.684 C112.980904,18.8066673 112.973238,18.9523325 112.973238,19.121 C112.973238,20.056338 113.73223,20.524 115.250238,20.524 C116.829579,20.524 117.695903,19.9643389 117.849238,18.845 L117.941238,18.201 C117.956571,18.0936661 117.964238,17.9863339 117.964238,17.879 C117.964238,17.6949991 117.918238,17.5301674 117.826238,17.3845 C117.734237,17.2388326 117.588572,17.1046673 117.389238,16.982 C117.189903,16.8593327 117.009738,16.7596671 116.848738,16.683 C116.687737,16.6063329 116.476906,16.5143339 116.216238,16.407 L113.019238,15.142 C112.421235,14.9119989 111.942073,14.5555024 111.581738,14.0725 C111.221402,13.5894976 111.041238,13.049003 111.041238,12.451 C111.041238,12.3896664 111.056571,12.2056682 111.087238,11.899 L111.225238,10.749 C111.516572,8.24965417 113.379554,7 116.814238,7 C118.53158,7 119.7889,7.31049689 120.586238,7.9315 C121.383575,8.5525031 121.782238,9.33832858 121.782238,10.289 C121.782238,10.4270007 121.774571,10.5803325 121.759238,10.749 L121.667238,11.692 C121.621237,12.0753352 121.406573,12.267 121.023238,12.267 L119.091238,12.267 C118.723236,12.267 118.562237,12.0753352 118.608238,11.692 L118.608238,11.692 Z" id="Shape" fill="#FFFFFF"></path>
        </g>
    </g>
</svg>