<?xml version="1.0" encoding="UTF-8"?>
<svg width="350px" height="30px" viewBox="0 0 350 30" version="1.1" xmlns="http://www.w3.org/2000/svg" xmlns:xlink="http://www.w3.org/1999/xlink">
    <title>Trading212-Invest logo</title>
    <g id="logo-invest" stroke="none" stroke-width="1" fill="none" fill-rule="evenodd">
        <g id="Group-2" transform="translate(246.000000, 0.000000)" fill-rule="nonzero">
            <path d="M24.305054,0 C15.651478,0 7.979453,5.5653494 5.293127,13.7914078 L0,30 L79.694946,30 C88.348522,30 96.020547,24.4346506 98.706873,16.2085922 L104,0 L24.305054,0 Z" id="Path" fill="#FF903B"></path>
            <path d="M21.906393,7.782 L20.135393,22.226 C20.089393,22.6246687 19.882395,22.824 19.514393,22.824 L17.513393,22.824 C17.130058,22.824 16.961393,22.6246687 17.007393,22.226 L18.801393,7.782 C18.847393,7.3833313 19.054391,7.184 19.422393,7.184 L21.423393,7.184 C21.791395,7.184 21.952393,7.3833313 21.906393,7.782 Z M36.212393,7.759 L34.418393,22.249 C34.372393,22.6323352 34.173061,22.824 33.820393,22.824 L32.095393,22.824 C31.834725,22.824 31.658393,22.7320009 31.566393,22.548 L28.047393,14.935 C27.740725,14.2296631 27.510727,13.6010028 27.357393,13.049 L26.230393,22.249 C26.184393,22.6323352 25.985061,22.824 25.632393,22.824 L23.815393,22.824 C23.432058,22.824 23.263393,22.6323352 23.309393,22.249 L25.080393,7.759 C25.126393,7.3756647 25.341058,7.184 25.724393,7.184 L27.449393,7.184 C27.710061,7.184 27.871059,7.2606659 27.932393,7.414 L31.589393,15.349 C31.880728,15.9776698 32.072393,16.5143311 32.164393,16.959 L33.291393,7.759 C33.337393,7.3756647 33.544391,7.184 33.912393,7.184 L35.729393,7.184 C36.097395,7.184 36.258393,7.3756647 36.212393,7.759 Z M43.388393,22.824 L41.387393,22.824 C41.004058,22.824 40.781727,22.6323352 40.720393,22.249 L38.213393,7.759 C38.136726,7.3756647 38.305391,7.184 38.719393,7.184 L40.858393,7.184 C41.057727,7.184 41.199559,7.2299995 41.283893,7.322 C41.368227,7.4140005 41.425726,7.5596657 41.456393,7.759 L42.721393,15.579 C42.828727,16.2690034 42.882393,17.380659 42.882393,18.914 C42.897726,18.8373329 42.955226,18.6111685 43.054893,18.2355 C43.15456,17.8598315 43.288725,17.3998361 43.457393,16.8555 C43.62606,16.3111639 43.771726,15.8933348 43.894393,15.602 L47.091393,7.759 C47.26006,7.3756647 47.513058,7.184 47.850393,7.184 L49.897393,7.184 C50.296062,7.184 50.41106,7.3756647 50.242393,7.759 L44.170393,22.249 C44.017059,22.6323352 43.756395,22.824 43.388393,22.824 Z M59.028393,22.824 L50.909393,22.824 C50.526058,22.824 50.357393,22.6246687 50.403393,22.226 L52.197393,7.782 C52.243393,7.3833313 52.450391,7.184 52.818393,7.184 L60.684393,7.184 C61.083062,7.184 61.259393,7.3679982 61.213393,7.736 L61.029393,9.185 C60.983393,9.5683352 60.768728,9.76 60.385393,9.76 L55.072393,9.76 L54.612393,13.486 L59.557393,13.486 C59.925395,13.486 60.086393,13.6699982 60.040393,14.038 L59.879393,15.418 C59.833393,15.7860018 59.618728,15.97 59.235393,15.97 L54.313393,15.97 L53.761393,20.248 L59.327393,20.248 C59.741395,20.248 59.917727,20.4319982 59.856393,20.8 L59.649393,22.249 C59.588059,22.6323352 59.381061,22.824 59.028393,22.824 Z M70.781393,11.692 L70.850393,11.163 C70.865726,11.0403327 70.873393,10.9636668 70.873393,10.933 C70.873393,9.9669952 70.175733,9.484 68.780393,9.484 C67.277719,9.484 66.472727,10.0436611 66.365393,11.163 L66.342393,11.393 C66.32706,11.5310007 66.319393,11.6536661 66.319393,11.761 C66.319393,12.2056689 66.580057,12.5276657 67.101393,12.727 L70.896393,14.153 C72.475734,14.751003 73.265393,15.7476597 73.265393,17.143 C73.265393,17.2350005 73.25006,17.4189986 73.219393,17.695 L73.058393,19.259 C72.935726,20.3630055 72.418231,21.2638298 71.505893,21.9615 C70.593555,22.6591702 69.163736,23.008 67.216393,23.008 C65.453051,23.008 64.149731,22.6898365 63.306393,22.0535 C62.463055,21.4171635 62.041393,20.6160048 62.041393,19.65 C62.041393,19.4813325 62.056726,19.2973343 62.087393,19.098 L62.248393,17.81 C62.294393,17.4113313 62.501391,17.212 62.869393,17.212 L64.801393,17.212 C65.169395,17.212 65.330393,17.4113313 65.284393,17.81 L65.169393,18.684 C65.15406,18.8066673 65.146393,18.9523325 65.146393,19.121 C65.146393,20.056338 65.905385,20.524 67.423393,20.524 C69.002734,20.524 69.869059,19.9643389 70.022393,18.845 L70.114393,18.201 C70.129726,18.0936661 70.137393,17.9863339 70.137393,17.879 C70.137393,17.6949991 70.091393,17.5301674 69.999393,17.3845 C69.907393,17.2388326 69.761727,17.1046673 69.562393,16.982 C69.363059,16.8593327 69.182894,16.759667 69.021893,16.683 C68.860892,16.6063329 68.650061,16.5143339 68.389393,16.407 L65.192393,15.142 C64.59439,14.9119989 64.115228,14.5555024 63.754893,14.0725 C63.394558,13.5894976 63.214393,13.049003 63.214393,12.451 C63.214393,12.3896664 63.229726,12.2056682 63.260393,11.899 L63.398393,10.749 C63.689728,8.2496542 65.552709,7 68.987393,7 C70.704735,7 71.962056,7.3104969 72.759393,7.9315 C73.55673,8.5525031 73.955393,9.3383286 73.955393,10.289 C73.955393,10.4270007 73.947726,10.5803325 73.932393,10.749 L73.840393,11.692 C73.794393,12.0753352 73.579728,12.267 73.196393,12.267 L71.264393,12.267 C70.896391,12.267 70.735393,12.0753352 70.781393,11.692 Z M76.301393,7.184 L85.938393,7.184 C86.337062,7.184 86.513393,7.3679982 86.467393,7.736 L86.283393,9.185 C86.237393,9.5683352 86.030395,9.76 85.662393,9.76 L82.373393,9.76 L80.832393,22.226 C80.786393,22.6246687 80.587061,22.824 80.234393,22.824 L78.233393,22.824 C77.850058,22.824 77.681393,22.6246687 77.727393,22.226 L79.268393,9.76 L76.002393,9.76 C75.603724,9.76 75.427393,9.5683352 75.473393,9.185 L75.657393,7.736 C75.703393,7.3679982 75.918058,7.184 76.301393,7.184 Z" id="Shape" fill="#FFFFFF"></path>
        </g>
        <g id="Group" fill-rule="nonzero">
            <path d="M226.624714,18.9299571 C233.453571,16.9666714 235.314857,14.7938143 235.314857,8.79295714 C235.314857,4.34567143 233.348571,-4.28571428e-05 224.97,-4.28571428e-05 C217.106571,-4.28571428e-05 214.935,3.51638571 214.625143,8.79295714 C214.625143,9.41481429 215.039143,9.82752857 215.660571,9.82752857 L219.487714,9.82752857 C220.211143,9.82752857 220.521857,9.51852857 220.626,8.79295714 C220.936714,5.89624286 222.693429,5.17195714 224.97,5.17195714 C227.451429,5.17195714 229.417714,6.00081429 229.417714,8.79295714 C229.417714,12.6218143 227.971286,12.9308143 221.866286,14.7938143 C215.451857,16.6546714 213.591429,19.5505286 213.591429,24.3106714 L213.591429,28.4481 C213.591429,29.0691 213.901714,29.4818143 214.625143,29.4818143 L233.245286,29.4818143 C233.865857,29.4818143 234.279,29.1715286 234.279,28.4481 L234.279,25.3448143 C234.279,24.6209571 233.865857,24.3106714 233.245286,24.3106714 L219.487714,24.3106714 C219.487714,21.5172429 220.936714,20.6883857 226.624714,18.9299571" id="Path" fill="#3F3F3F"></path>
            <path d="M206.332457,24.3105429 L206.332457,1.24097143 C206.332457,0.517542857 205.815171,0.205971429 205.090886,0.414257143 L195.9876,3.82825714 C195.469886,4.03397143 195.160457,4.44797143 195.160457,4.96568571 L195.160457,8.58497143 C195.160457,9.3114 195.677314,9.61954286 196.400743,9.41511429 L200.5386,7.83582857 L200.5386,24.3105429 L195.160457,24.3105429 C194.436171,24.3105429 194.125029,24.7249714 194.125029,25.3446857 L194.125029,28.4479714 C194.125029,29.0694 194.436171,29.4816857 195.160457,29.4816857 L209.643171,29.4816857 C210.263314,29.4816857 210.676886,29.1718286 210.676886,28.4479714 L210.676886,25.3446857 C210.676886,24.6212571 210.263314,24.3105429 209.643171,24.3105429 L206.332457,24.3105429 Z" id="Path" fill="#3F3F3F"></path>
            <path d="M183.451586,18.9299571 C190.280443,16.9666714 192.142586,14.7938143 192.142586,8.79295714 C192.142586,4.34567143 190.175871,-4.28571428e-05 181.7973,-4.28571428e-05 C173.936443,-4.28571428e-05 171.7623,3.51638571 171.451586,8.79295714 C171.451586,9.41481429 171.865586,9.82752857 172.4883,9.82752857 L176.315443,9.82752857 C177.038443,9.82752857 177.349586,9.51852857 177.452014,8.79295714 C177.764014,5.89624286 179.521586,5.17195714 181.7973,5.17195714 C184.280871,5.17195714 186.2463,6.00081429 186.2463,8.79295714 C186.2463,12.6218143 184.798157,12.9308143 178.693586,14.7938143 C172.280871,16.6546714 170.417871,19.5505286 170.417871,24.3106714 L170.417871,28.4481 C170.417871,29.0691 170.729014,29.4818143 171.451586,29.4818143 L190.072586,29.4818143 C190.694443,29.4818143 191.106729,29.1715286 191.106729,28.4481 L191.106729,25.3448143 C191.106729,24.6209571 190.694443,24.3106714 190.072586,24.3106714 L176.315443,24.3106714 C176.315443,21.5172429 177.764014,20.6883857 183.451586,18.9299571" id="Path" fill="#3F3F3F"></path>
            <path d="M124.6398,1.55168571 L124.6398,13.1385429 L125.007514,18.9345429 L114.916371,1.24011429 C114.606514,0.724542857 114.2958,0.516257143 113.674371,0.516257143 L109.744371,0.516257143 C109.019657,0.516257143 108.709371,0.930685714 108.709371,1.55168571 L108.709371,28.4479714 C108.709371,29.0694 109.019657,29.4816857 109.744371,29.4816857 L113.4678,29.4816857 C114.0888,29.4816857 114.501086,29.0694 114.501086,28.4479714 L114.501086,16.8611143 L114.134657,11.0642571 L124.225371,28.7586857 C124.536943,29.2751143 124.847229,29.4816857 125.466943,29.4816857 L129.398229,29.4816857 C130.0188,29.4816857 130.4328,29.1718286 130.4328,28.4479714 L130.4328,1.55168571 C130.4328,0.828257143 130.0188,0.516257143 129.398229,0.516257143 L125.6748,0.516257143 C124.950514,0.516257143 124.6398,0.828257143 124.6398,1.55168571" id="Path" fill="#3F3F3F"></path>
            <path d="M103.1229,28.4481 L103.1229,1.55181429 C103.1229,0.827957143 102.709329,0.516385714 102.088329,0.516385714 L98.3640429,0.516385714 C97.6401857,0.516385714 97.3294714,0.930385714 97.3294714,1.55181429 L97.3294714,28.4481 C97.3294714,29.0691 97.6401857,29.4818143 98.3640429,29.4818143 L102.088329,29.4818143 C102.709329,29.4818143 103.1229,29.0691 103.1229,28.4481" id="Path" fill="#3F3F3F"></path>
            <path d="M57.4001143,7.27697143 L61.4338286,16.2401143 C61.6412571,16.8611143 62.0531143,17.0694 62.5716857,17.0694 L66.3996857,17.0694 C67.2268286,17.0694 67.5358286,16.5521143 67.2268286,15.8278286 L60.7091143,1.34382857 C60.5025429,0.724542857 60.0881143,0.516685714 59.5716857,0.516685714 L55.2276857,0.516685714 C54.7095429,0.516685714 54.2964,0.724542857 54.0885429,1.34382857 L47.5716857,15.8278286 C47.2614,16.5521143 47.5716857,17.0694 48.3988286,17.0694 L52.2264,17.0694 C52.7441143,17.0694 53.1576857,16.8611143 53.3646857,16.2401143 L57.4001143,7.27697143 Z" id="Path" fill="#00A7E1"></path>
            <path d="M34.2258857,13.3447286 L30.1921714,13.3447286 L30.1921714,5.6883 L34.2258857,5.6883 C37.7436,5.6883 39.1930286,6.72458571 39.1930286,9.51758571 C39.1930286,12.3088714 37.7436,13.3447286 34.2258857,13.3447286 L34.2258857,13.3447286 Z M40.1564571,17.6445857 C44.3063143,16.1120143 45.0884571,12.7845857 45.0884571,9.51758571 C45.0884571,5.06901429 43.6411714,0.5163 34.2258857,0.5163 L25.4350286,0.5163 C24.7094571,0.5163 24.3987429,0.930728571 24.3987429,1.55172857 L24.3987429,28.4480143 C24.3987429,29.0690143 24.7094571,29.4817286 25.4350286,29.4817286 L29.1576,29.4817286 C29.7786,29.4817286 30.1921714,29.0690143 30.1921714,28.4480143 L30.1921714,18.5158714 L34.5190286,18.5154429 L38.7781714,28.6554429 C38.9851714,29.2751571 39.3987429,29.4817286 39.9168857,29.4817286 L43.7431714,29.4817286 C44.5724571,29.4817286 44.8810286,28.9644429 44.5724571,28.2405857 L40.1564571,17.6445857 Z" id="Shape" fill="#3F3F3F"></path>
            <path d="M20.0545286,0.516471429 L1.43438571,0.516471429 C0.709242857,0.516471429 0.399385714,0.828042857 0.399385714,1.5519 L0.399385714,4.65432857 C0.399385714,5.27447143 0.813385714,5.68847143 1.43438571,5.68847143 L7.84795714,5.68847143 L7.84795714,28.4481857 C7.84795714,29.0691857 8.15824286,29.4819 8.8821,29.4819 L12.6068143,29.4819 C13.2273857,29.4819 13.6409571,29.0691857 13.6409571,28.4481857 L13.6409571,5.68847143 L20.0545286,5.68847143 C20.6746714,5.68847143 21.0882429,5.27447143 21.0882429,4.65432857 L21.0882429,1.5519 C21.0882429,0.828042857 20.6746714,0.516471429 20.0545286,0.516471429" id="Path" fill="#3F3F3F"></path>
            <path d="M156.192086,13.9645714 L147.398657,13.9645714 C146.676514,13.9645714 146.364943,14.2752857 146.364943,15 L146.364943,18.1045714 C146.364943,18.7234286 146.676514,19.1382857 147.398657,19.1382857 L151.3308,19.1382857 L151.3308,20.1715714 C151.3308,23.9982857 149.880086,24.828 146.364943,24.828 C142.847657,24.828 141.398657,23.9982857 141.398657,20.1715714 L141.398657,9.82757143 C141.398657,5.99957143 142.847657,5.172 146.364943,5.172 C149.570657,5.172 151.019229,5.89628571 151.3308,8.79214286 C151.3308,9.51771429 151.640229,9.82757143 152.364086,9.82757143 L156.192086,9.82757143 C156.813086,9.82757143 157.2258,9.414 157.2258,8.79214286 C157.019229,3.51642857 155.157514,0 146.364943,0 C136.950943,0 135.5028,4.03285714 135.5028,9.51771429 L135.5028,20.481 C135.5028,25.9658571 136.950943,30 146.364943,30 C155.777657,30 157.2258,25.9658571 157.2258,20.481 L157.2258,15 C157.2258,14.2752857 156.813086,13.9645714 156.192086,13.9645714" id="Path" fill="#3F3F3F"></path>
            <path d="M86.2617,19.6540286 C86.2617,23.4824571 84.8131286,24.3104571 81.2954143,24.3104571 L77.2608429,24.3104571 L77.2608429,5.6886 L81.2954143,5.6886 C84.8131286,5.6886 86.2617,6.51745714 86.2617,10.3446 L86.2617,19.6540286 Z M81.2954143,0.5166 L72.5024143,0.5166 C71.7785571,0.5166 71.4682714,0.9306 71.4682714,1.5516 L71.4682714,28.4483143 C71.4682714,29.0693143 71.7785571,29.4820286 72.5024143,29.4820286 L81.2954143,29.4820286 C90.7089857,29.4820286 92.1567,25.4478857 92.1567,19.9660286 L92.1567,10.0338857 C92.1567,4.55074286 90.7089857,0.5166 81.2954143,0.5166 L81.2954143,0.5166 Z" id="Shape" fill="#3F3F3F"></path>
        </g>
    </g>
</svg>