<?xml version="1.0" encoding="UTF-8"?>
<svg width="166px" height="30px" viewBox="0 0 166 30" version="1.1" xmlns="http://www.w3.org/2000/svg" xmlns:xlink="http://www.w3.org/1999/xlink">
    <title>logo-strowr</title>
    <g id="logo-strowr" stroke="none" stroke-width="1" fill="none" fill-rule="evenodd">
        <g id="Group">
            <path d="M11.4638388,12.9688043 C12.1711224,12.8788043 12.8018985,12.5207609 13.2382866,11.9602174 C14.1399582,10.8032609 13.9255403,9.13336957 12.7611821,8.23826087 C12.2883463,7.87467391 11.7193015,7.68293478 11.1312119,7.68293478 C11.0172716,7.68293478 10.9033313,7.69043478 10.7880776,7.70478261 C10.079809,7.79413043 9.44903284,8.1525 9.01264478,8.71304348 C8.57527164,9.27358696 8.38515224,9.96913043 8.47479403,10.6721739 C8.56607761,11.3748913 8.92595821,12.0009783 9.49073433,12.4346739 C10.0558388,12.8686957 10.7568836,13.0588043 11.4638388,12.9688043" id="Fill-26" fill="#747980"></path>
            <path d="M10.8507284,29.8641848 C11.4457134,29.8641848 12.0088478,29.594837 12.3785791,29.1321196 C12.6557134,28.7864674 13.5560716,27.6419022 14.6889075,26.0584239 L11.7195642,23.1089674 L5.78974328,17.2208152 L3.12938507,19.8624457 C5.61144478,24.3552717 8.75087761,28.4078804 9.31401194,29.1213587 C9.68242985,29.5883152 10.2455642,29.8622283 10.8435045,29.8641848 L10.8507284,29.8641848 Z" id="Fill-28" fill="#FF444C"></path>
            <path d="M2.73850746,3.6843913 L6.62758209,7.54591304 C5.9761194,8.57830435 5.68191045,9.78123913 5.83952239,11.0063478 C5.94952239,11.8600435 6.2801791,12.6433043 6.75991045,13.3316739 L6.75991045,13.3316739 L4.31659701,15.7577609 L4.31692537,15.758087 L2.12349254,17.9363478 C0.893791045,15.4196087 -1.95399252e-14,12.8927609 -1.95399252e-14,10.8413478 C-1.95399252e-14,8.09732609 1.03991045,5.59591304 2.73850746,3.6843913 L2.73850746,3.6843913 Z M10.9168269,0 C13.5075731,0 15.8868567,0.904565217 17.7611254,2.40684783 L17.7611254,2.40684783 L14.1439313,5.99902174 C13.0623194,5.25554348 11.7695731,4.91608696 10.4525284,5.08663043 C9.56957313,5.19847826 8.76082687,5.54086957 8.05551343,6.03880435 L8.05551343,6.03880435 L4.25936418,2.26891304 C6.10440896,0.852391304 8.40981194,0 10.9168269,0 Z" id="Combined-Shape" fill="#00C4E6"></path>
            <path d="M15.6295881,7.54154348 C16.7742448,9.36730435 16.7407522,11.777413 15.3403045,13.5757826 C14.4698269,14.6936087 13.2125433,15.407413 11.8002746,15.5861087 C11.571409,15.6151304 11.3422149,15.6298043 11.114991,15.6298043 C10.0960955,15.6298043 9.11463284,15.324587 8.25433433,14.7735 L7.2630209,15.7576304 L13.1925134,21.6464348 L15.8939164,24.3288261 C18.5976179,20.3303478 21.8339164,14.7346957 21.8339164,10.8412174 C21.8339164,8.20284783 20.8777373,5.78393478 19.2947224,3.90208696 L15.6295881,7.54154348 Z" id="Fill-34" fill="#00D48F"></path>
        </g>
        <path d="M98.6488591,5.21154569 C105.350931,5.21154569 110.802013,10.7720634 110.802013,17.6057728 C110.802013,24.4402658 105.350931,30 98.6488591,30 C91.9467875,30 86.4949053,24.4402658 86.4949053,17.6057728 C86.4949053,10.7720634 91.9467875,5.21154569 98.6488591,5.21154569 Z M41.1264635,5.2737558 C46.2112074,5.2737558 49.6282321,8.00191175 49.6282321,12.0620221 C49.6282321,13.6846559 48.2852582,15.0001567 46.6287371,15.0001567 C44.972216,15.0001567 43.6292421,13.6846559 43.6292421,12.0620221 C43.6292421,11.1602106 42.3222622,10.3453679 41.1096663,10.3453679 C39.5459296,10.3453679 38.7924564,11.0677573 38.7924564,11.9531152 C38.7924564,13.0014416 39.3731587,13.5373574 41.5135983,14.338097 L42.1902844,14.5880343 C44.9882133,15.6081547 49.6714249,17.3169738 49.6714249,22.70042 C49.6714249,26.7111696 45.7336878,29.9744578 40.8929028,29.9744578 C34.749937,29.9744578 32,26.5630876 32,23.182274 C32,21.5596402 33.3429739,20.2441394 34.999495,20.2441394 C36.6560161,20.2441394 37.99899,21.5596402 37.99899,23.182274 C37.99899,23.6876332 39.0532125,24.549486 40.6489439,24.549486 C42.6574057,24.549486 43.6724348,23.8043751 43.6724348,22.8101103 C43.6724348,21.4820735 42.9165621,20.9696628 40.0962369,20.0952739 L39.36516,19.8249655 C37.232719,19.0234424 32.7934664,17.3569324 32.7934664,12.5485772 C32.7934664,9.03221763 34.981898,5.2737558 41.1264635,5.2737558 Z M56.3096673,-2.13162821e-14 C57.9661884,-2.13162821e-14 59.3091623,1.31550081 59.3091623,2.93813464 L59.3086057,5.51361701 C59.6415538,5.40864294 59.9965983,5.35194935 60.3651445,5.35194935 C62.2680241,5.35194935 63.8117642,6.86332581 63.8117642,8.72806193 C63.8117642,10.5920145 62.2680241,12.1041745 60.3651445,12.1041745 C59.9965983,12.1041745 59.6415538,12.0474515 59.3086057,11.9424358 L59.3091623,22.2287514 C59.3091623,23.9203335 61.1696491,23.9689106 61.3824132,23.9689106 C61.8983264,23.9689106 62.3606485,23.8263132 62.6509997,23.5771593 C62.7581816,23.4854895 63.0845267,23.2049956 63.0845267,22.3533283 C63.0845267,20.7306945 64.4275006,19.4151937 66.0840217,19.4151937 C67.7405428,19.4151937 69.0835167,20.7306945 69.0835167,22.3533283 C69.0835167,24.6223518 68.2012652,26.6281183 66.6007347,28.0008148 C65.2121685,29.1893882 63.3588805,29.8451799 61.3824132,29.8451799 C57.4686721,29.8451799 53.3101723,27.1765701 53.3101723,22.2287514 L53.3101723,2.93813464 C53.3101723,1.31550081 54.6531462,-2.13162821e-14 56.3096673,-2.13162821e-14 Z M145.599835,5.33055973 C147.062912,5.33055973 148.313204,6.22450264 148.812995,7.48495999 C149.145294,8.19274364 149.190207,9.02743546 148.869604,9.80686662 L141.406061,27.9480851 C140.955736,29.0426382 139.882317,29.7665946 138.67772,29.7877492 L138.624129,29.7885327 C137.441128,29.7885327 136.367709,29.1068854 135.88459,28.0460229 L130.373654,15.9335597 L124.864126,28.0460229 C124.381007,29.1068854 123.306788,29.7885327 122.124587,29.7885327 L122.070996,29.7877492 C120.866399,29.7665946 119.792979,29.0426382 119.342655,27.9480851 L111.879112,9.80686662 C111.569164,9.0543124 111.600359,8.25024289 111.901008,7.55841012 L111.940046,7.47410591 C112.442697,6.21937376 113.690007,5.33055973 115.148881,5.33055973 C117.051761,5.33055973 118.595501,6.84271969 118.595501,8.70667231 C118.595501,9.12155737 118.519083,9.5189505 118.379294,9.88609771 L122.262963,19.3264228 L127.558331,7.68771313 C127.829047,6.97222937 128.382319,6.36000722 129.149724,6.02489971 C129.441774,5.8975697 129.743997,5.81974358 130.046389,5.78779989 C130.053864,5.78792978 130.061859,5.78708356 130.069859,5.78626864 C130.115892,5.78091796 130.161467,5.7775079 130.207006,5.77512557 C130.244995,5.77325398 130.282899,5.77181349 130.320869,5.77107981 C130.333124,5.77112064 130.345127,5.77101394 130.357124,5.770978 C130.772331,5.76745739 131.195083,5.84905698 131.598992,6.02489971 C132.360248,6.35749823 132.910972,6.96307733 133.183959,7.67165981 L138.485752,19.3264228 L142.369043,9.88510355 C142.229495,9.51823317 142.153215,9.12118293 142.153215,8.70667231 C142.153215,6.84271969 143.696955,5.33055973 145.599835,5.33055973 Z M83.2564905,5.4271656 C83.6374141,5.4271656 84.0017576,5.49672771 84.3370036,5.62359049 C85.6771991,6.0860134 86.6376013,7.33725709 86.6376013,8.80844929 C86.6376013,10.6724019 85.0946611,12.1845619 83.1909816,12.1845619 C82.2973535,12.1845619 81.4829974,11.8507868 80.8706749,11.3035684 L79.3235527,11.3034349 C77.8755206,11.3034349 77.7167231,13.8393821 77.7074933,14.764622 L77.7070248,26.8481259 C77.7070248,28.4707597 76.3640509,29.7862605 74.7075298,29.7862605 C73.0510087,29.7862605 71.7080348,28.4707597 71.7080348,26.8481259 L71.7080348,14.8574025 C71.7080348,7.8975492 75.811344,5.4271656 79.3235527,5.4271656 L83.2564905,5.4271656 Z M162.618969,5.36519055 C162.999893,5.36519055 163.364236,5.43475266 163.699482,5.56161544 C165.039598,6.02403835 166,7.27528204 166,8.74647424 C166,10.6104269 164.45706,12.1218033 162.55338,12.1218033 C161.660251,12.1218033 160.846306,11.7885739 160.2341,11.2420827 L158.686031,11.2414598 C157.237999,11.2414598 157.079202,13.777407 157.069972,14.7026469 L157.069504,26.7861508 C157.069504,28.4087846 155.72653,29.7242854 154.070009,29.7242854 C152.413487,29.7242854 151.070514,28.4087846 151.070514,26.7861508 L151.070514,14.7954275 C151.070514,7.83557415 155.173823,5.36519055 158.686031,5.36519055 L162.618969,5.36519055 Z M98.6488591,11.087815 C95.2542306,11.087815 92.4938954,14.0118466 92.4938954,17.6057728 C92.4938954,21.1996991 95.2542306,24.1237307 98.6488591,24.1237307 C102.042688,24.1237307 104.803023,21.1996991 104.803023,17.6057728 C104.803023,14.0118466 102.042688,11.087815 98.6488591,11.087815 Z" id="Combined-Shape" fill="#747980"></path>
    </g>
</svg>