<?xml version="1.0" encoding="UTF-8"?>
<svg width="236px" height="30px" viewBox="0 0 236 30" version="1.1" xmlns="http://www.w3.org/2000/svg" xmlns:xlink="http://www.w3.org/1999/xlink">
    <title>logo-trading</title>
    <g id="logo-trading" stroke="none" stroke-width="1" fill="none" fill-rule="evenodd">
        <g id="Group" fill-rule="nonzero">
            <path d="M226.624714,18.9299571 C233.453571,16.9666714 235.314857,14.7938143 235.314857,8.79295714 C235.314857,4.34567143 233.348571,-4.28571428e-05 224.97,-4.28571428e-05 C217.106571,-4.28571428e-05 214.935,3.51638571 214.625143,8.79295714 C214.625143,9.41481429 215.039143,9.82752857 215.660571,9.82752857 L219.487714,9.82752857 C220.211143,9.82752857 220.521857,9.51852857 220.626,8.79295714 C220.936714,5.89624286 222.693429,5.17195714 224.97,5.17195714 C227.451429,5.17195714 229.417714,6.00081429 229.417714,8.79295714 C229.417714,12.6218143 227.971286,12.9308143 221.866286,14.7938143 C215.451857,16.6546714 213.591429,19.5505286 213.591429,24.3106714 L213.591429,28.4481 C213.591429,29.0691 213.901714,29.4818143 214.625143,29.4818143 L233.245286,29.4818143 C233.865857,29.4818143 234.279,29.1715286 234.279,28.4481 L234.279,25.3448143 C234.279,24.6209571 233.865857,24.3106714 233.245286,24.3106714 L219.487714,24.3106714 C219.487714,21.5172429 220.936714,20.6883857 226.624714,18.9299571" id="Path" fill="#3F3F3F"></path>
            <path d="M206.332457,24.3105429 L206.332457,1.24097143 C206.332457,0.517542857 205.815171,0.205971429 205.090886,0.414257143 L195.9876,3.82825714 C195.469886,4.03397143 195.160457,4.44797143 195.160457,4.96568571 L195.160457,8.58497143 C195.160457,9.3114 195.677314,9.61954286 196.400743,9.41511429 L200.5386,7.83582857 L200.5386,24.3105429 L195.160457,24.3105429 C194.436171,24.3105429 194.125029,24.7249714 194.125029,25.3446857 L194.125029,28.4479714 C194.125029,29.0694 194.436171,29.4816857 195.160457,29.4816857 L209.643171,29.4816857 C210.263314,29.4816857 210.676886,29.1718286 210.676886,28.4479714 L210.676886,25.3446857 C210.676886,24.6212571 210.263314,24.3105429 209.643171,24.3105429 L206.332457,24.3105429 Z" id="Path" fill="#3F3F3F"></path>
            <path d="M183.451586,18.9299571 C190.280443,16.9666714 192.142586,14.7938143 192.142586,8.79295714 C192.142586,4.34567143 190.175871,-4.28571428e-05 181.7973,-4.28571428e-05 C173.936443,-4.28571428e-05 171.7623,3.51638571 171.451586,8.79295714 C171.451586,9.41481429 171.865586,9.82752857 172.4883,9.82752857 L176.315443,9.82752857 C177.038443,9.82752857 177.349586,9.51852857 177.452014,8.79295714 C177.764014,5.89624286 179.521586,5.17195714 181.7973,5.17195714 C184.280871,5.17195714 186.2463,6.00081429 186.2463,8.79295714 C186.2463,12.6218143 184.798157,12.9308143 178.693586,14.7938143 C172.280871,16.6546714 170.417871,19.5505286 170.417871,24.3106714 L170.417871,28.4481 C170.417871,29.0691 170.729014,29.4818143 171.451586,29.4818143 L190.072586,29.4818143 C190.694443,29.4818143 191.106729,29.1715286 191.106729,28.4481 L191.106729,25.3448143 C191.106729,24.6209571 190.694443,24.3106714 190.072586,24.3106714 L176.315443,24.3106714 C176.315443,21.5172429 177.764014,20.6883857 183.451586,18.9299571" id="Path" fill="#3F3F3F"></path>
            <path d="M124.6398,1.55168571 L124.6398,13.1385429 L125.007514,18.9345429 L114.916371,1.24011429 C114.606514,0.724542857 114.2958,0.516257143 113.674371,0.516257143 L109.744371,0.516257143 C109.019657,0.516257143 108.709371,0.930685714 108.709371,1.55168571 L108.709371,28.4479714 C108.709371,29.0694 109.019657,29.4816857 109.744371,29.4816857 L113.4678,29.4816857 C114.0888,29.4816857 114.501086,29.0694 114.501086,28.4479714 L114.501086,16.8611143 L114.134657,11.0642571 L124.225371,28.7586857 C124.536943,29.2751143 124.847229,29.4816857 125.466943,29.4816857 L129.398229,29.4816857 C130.0188,29.4816857 130.4328,29.1718286 130.4328,28.4479714 L130.4328,1.55168571 C130.4328,0.828257143 130.0188,0.516257143 129.398229,0.516257143 L125.6748,0.516257143 C124.950514,0.516257143 124.6398,0.828257143 124.6398,1.55168571" id="Path" fill="#3F3F3F"></path>
            <path d="M103.1229,28.4481 L103.1229,1.55181429 C103.1229,0.827957143 102.709329,0.516385714 102.088329,0.516385714 L98.3640429,0.516385714 C97.6401857,0.516385714 97.3294714,0.930385714 97.3294714,1.55181429 L97.3294714,28.4481 C97.3294714,29.0691 97.6401857,29.4818143 98.3640429,29.4818143 L102.088329,29.4818143 C102.709329,29.4818143 103.1229,29.0691 103.1229,28.4481" id="Path" fill="#3F3F3F"></path>
            <path d="M57.4001143,7.27697143 L61.4338286,16.2401143 C61.6412571,16.8611143 62.0531143,17.0694 62.5716857,17.0694 L66.3996857,17.0694 C67.2268286,17.0694 67.5358286,16.5521143 67.2268286,15.8278286 L60.7091143,1.34382857 C60.5025429,0.724542857 60.0881143,0.516685714 59.5716857,0.516685714 L55.2276857,0.516685714 C54.7095429,0.516685714 54.2964,0.724542857 54.0885429,1.34382857 L47.5716857,15.8278286 C47.2614,16.5521143 47.5716857,17.0694 48.3988286,17.0694 L52.2264,17.0694 C52.7441143,17.0694 53.1576857,16.8611143 53.3646857,16.2401143 L57.4001143,7.27697143 Z" id="Path" fill="#00A7E1"></path>
            <path d="M34.2258857,13.3447286 L30.1921714,13.3447286 L30.1921714,5.6883 L34.2258857,5.6883 C37.7436,5.6883 39.1930286,6.72458571 39.1930286,9.51758571 C39.1930286,12.3088714 37.7436,13.3447286 34.2258857,13.3447286 L34.2258857,13.3447286 Z M40.1564571,17.6445857 C44.3063143,16.1120143 45.0884571,12.7845857 45.0884571,9.51758571 C45.0884571,5.06901429 43.6411714,0.5163 34.2258857,0.5163 L25.4350286,0.5163 C24.7094571,0.5163 24.3987429,0.930728571 24.3987429,1.55172857 L24.3987429,28.4480143 C24.3987429,29.0690143 24.7094571,29.4817286 25.4350286,29.4817286 L29.1576,29.4817286 C29.7786,29.4817286 30.1921714,29.0690143 30.1921714,28.4480143 L30.1921714,18.5158714 L34.5190286,18.5154429 L38.7781714,28.6554429 C38.9851714,29.2751571 39.3987429,29.4817286 39.9168857,29.4817286 L43.7431714,29.4817286 C44.5724571,29.4817286 44.8810286,28.9644429 44.5724571,28.2405857 L40.1564571,17.6445857 Z" id="Shape" fill="#3F3F3F"></path>
            <path d="M20.0545286,0.516471429 L1.43438571,0.516471429 C0.709242857,0.516471429 0.399385714,0.828042857 0.399385714,1.5519 L0.399385714,4.65432857 C0.399385714,5.27447143 0.813385714,5.68847143 1.43438571,5.68847143 L7.84795714,5.68847143 L7.84795714,28.4481857 C7.84795714,29.0691857 8.15824286,29.4819 8.8821,29.4819 L12.6068143,29.4819 C13.2273857,29.4819 13.6409571,29.0691857 13.6409571,28.4481857 L13.6409571,5.68847143 L20.0545286,5.68847143 C20.6746714,5.68847143 21.0882429,5.27447143 21.0882429,4.65432857 L21.0882429,1.5519 C21.0882429,0.828042857 20.6746714,0.516471429 20.0545286,0.516471429" id="Path" fill="#3F3F3F"></path>
            <path d="M156.192086,13.9645714 L147.398657,13.9645714 C146.676514,13.9645714 146.364943,14.2752857 146.364943,15 L146.364943,18.1045714 C146.364943,18.7234286 146.676514,19.1382857 147.398657,19.1382857 L151.3308,19.1382857 L151.3308,20.1715714 C151.3308,23.9982857 149.880086,24.828 146.364943,24.828 C142.847657,24.828 141.398657,23.9982857 141.398657,20.1715714 L141.398657,9.82757143 C141.398657,5.99957143 142.847657,5.172 146.364943,5.172 C149.570657,5.172 151.019229,5.89628571 151.3308,8.79214286 C151.3308,9.51771429 151.640229,9.82757143 152.364086,9.82757143 L156.192086,9.82757143 C156.813086,9.82757143 157.2258,9.414 157.2258,8.79214286 C157.019229,3.51642857 155.157514,0 146.364943,0 C136.950943,0 135.5028,4.03285714 135.5028,9.51771429 L135.5028,20.481 C135.5028,25.9658571 136.950943,30 146.364943,30 C155.777657,30 157.2258,25.9658571 157.2258,20.481 L157.2258,15 C157.2258,14.2752857 156.813086,13.9645714 156.192086,13.9645714" id="Path" fill="#3F3F3F"></path>
            <path d="M86.2617,19.6540286 C86.2617,23.4824571 84.8131286,24.3104571 81.2954143,24.3104571 L77.2608429,24.3104571 L77.2608429,5.6886 L81.2954143,5.6886 C84.8131286,5.6886 86.2617,6.51745714 86.2617,10.3446 L86.2617,19.6540286 Z M81.2954143,0.5166 L72.5024143,0.5166 C71.7785571,0.5166 71.4682714,0.9306 71.4682714,1.5516 L71.4682714,28.4483143 C71.4682714,29.0693143 71.7785571,29.4820286 72.5024143,29.4820286 L81.2954143,29.4820286 C90.7089857,29.4820286 92.1567,25.4478857 92.1567,19.9660286 L92.1567,10.0338857 C92.1567,4.55074286 90.7089857,0.5166 81.2954143,0.5166 L81.2954143,0.5166 Z" id="Shape" fill="#3F3F3F"></path>
        </g>
    </g>
</svg>